<svg width="12" height="19" viewBox="0 0 12 19" fill="none" xmlns="http://www.w3.org/2000/svg">
<path d="M0.5 17.4596V17.4592V1.16667C0.5 0.989856 0.570238 0.820287 0.695263 0.695262C0.820287 0.570238 0.989856 0.5 1.16667 0.5H10.5C10.6768 0.5 10.8464 0.570238 10.9714 0.695262C11.0964 0.820287 11.1667 0.989856 11.1667 1.16667V17.5V17.5004C11.1668 17.6321 11.1278 17.7609 11.0548 17.8706C10.9818 17.9802 10.8779 18.0657 10.7563 18.1164C10.6347 18.167 10.5008 18.1805 10.3715 18.1551C10.2423 18.1297 10.1234 18.0666 10.03 17.9737L6.16275 14.124L5.80974 13.7726L5.45699 14.1242L1.64198 17.9276L1.64 17.9296C1.54695 18.0234 1.42813 18.0874 1.29861 18.1136C1.16909 18.1397 1.03472 18.1268 0.912562 18.0764C0.790404 18.0261 0.685967 17.9405 0.612512 17.8307C0.539056 17.7209 0.499895 17.5917 0.5 17.4596Z" stroke="#242424"/>
</svg>
