<svg width="12" height="19" viewBox="0 0 12 19" fill="none" xmlns="http://www.w3.org/2000/svg">
<path d="M10.5 0H1.16667C0.857248 0 0.560502 0.122916 0.341709 0.341709C0.122917 0.560501 3.72243e-07 0.857247 3.72243e-07 1.16667V17.4592C-0.0001843 17.6904 0.0683478 17.9165 0.196895 18.1087C0.325443 18.3009 0.508207 18.4506 0.721983 18.5387C0.935759 18.6268 1.1709 18.6495 1.39756 18.6037C1.62422 18.5579 1.83217 18.4458 1.995 18.2817L5.81 14.4783L9.6775 18.3283C9.84099 18.4909 10.049 18.6013 10.2752 18.6457C10.5014 18.6902 10.7357 18.6666 10.9485 18.5779C11.1613 18.4893 11.3431 18.3396 11.4709 18.1478C11.5987 17.9559 11.6669 17.7305 11.6667 17.5V1.16667C11.6667 0.857247 11.5438 0.560501 11.325 0.341709C11.1062 0.122916 10.8094 0 10.5 0Z" fill="#242424"/>
</svg>
