<svg width="17" height="16" viewBox="0 0 17 16" fill="none" xmlns="http://www.w3.org/2000/svg">
<path d="M15.8495 5.55147L11.1384 4.86681L9.03249 0.59737C8.97497 0.480476 8.88034 0.385847 8.76345 0.328327C8.47028 0.183601 8.11403 0.304206 7.96745 0.59737L5.86149 4.86681L1.15045 5.55147C1.02057 5.57003 0.901822 5.63126 0.810904 5.72403C0.700989 5.837 0.640421 5.98899 0.642508 6.1466C0.644596 6.30421 0.709168 6.45454 0.822037 6.56456L4.23053 9.8877L3.42526 14.5802C3.40638 14.6893 3.41846 14.8016 3.46013 14.9043C3.5018 15.0069 3.5714 15.0958 3.66103 15.1609C3.75066 15.226 3.85674 15.2647 3.96724 15.2726C4.07774 15.2804 4.18824 15.2572 4.2862 15.2055L8.49997 12.99L12.7137 15.2055C12.8288 15.2667 12.9624 15.2871 13.0904 15.2649C13.4133 15.2092 13.6303 14.903 13.5747 14.5802L12.7694 9.8877L16.1779 6.56456C16.2707 6.47364 16.3319 6.35489 16.3505 6.22501C16.4006 5.9003 16.1742 5.59972 15.8495 5.55147Z" fill="#242424"/>
</svg>
